<svg width="303" height="303" xmlns="http://www.w3.org/2000/svg"
    xmlns:xlink="http://www.w3.org/1999/xlink" xml:space="preserve" overflow="hidden"><g transform="translate(-542 -378)"><path d="M772.406 636.812 614.594 636.812 614.594 441.125 649.312 441.125 649.312 460.062 737.688 460.062 737.688 441.125 772.406 441.125ZM693.5 415.875C698.73 415.875 702.969 420.114 702.969 425.344 702.969 430.573 698.73 434.812 693.5 434.812 688.27 434.812 684.031 430.573 684.031 425.344 683.945 420.2 688.045 415.961 693.188 415.875 693.292 415.873 693.396 415.873 693.5 415.875ZM778.719 422.188 725.062 422.188 725.062 415.875C725.062 408.902 719.41 403.25 712.438 403.25L674.562 403.25C667.59 403.25 661.938 408.902 661.938 415.875L661.938 422.188 608.281 422.188C601.309 422.188 595.656 427.84 595.656 434.812L595.656 643.125C595.656 650.097 601.309 655.75 608.281 655.75L778.719 655.75C785.691 655.75 791.344 650.097 791.344 643.125L791.344 434.812C791.344 427.84 785.691 422.188 778.719 422.188Z"/><path d="M699.812 485.312 753.469 485.312 753.469 497.938 699.812 497.938Z"/><path d="M699.812 523.188 753.469 523.188 753.469 535.812 699.812 535.812Z"/><path d="M699.812 561.062 753.469 561.062 753.469 573.688 699.812 573.688Z"/><path d="M699.812 598.938 753.469 598.938 753.469 611.562 699.812 611.562Z"/><path d="M635.763 490.994 642.369 484.388 650.575 492.594 671.406 471.763 678.012 478.369 650.575 505.806 635.763 490.994Z"/><path d="M635.763 528.869 642.369 522.263 650.575 530.469 671.406 509.638 678.012 516.244 650.575 543.681 635.763 528.869Z"/><path d="M635.763 566.744 642.369 560.138 650.575 568.344 671.406 547.513 678.012 554.119 650.575 581.556 635.763 566.744Z"/><path d="M635.763 604.619 642.369 598.013 650.575 606.219 671.406 585.388 678.012 591.994 650.575 619.431 635.763 604.619Z"/></g></svg>